<?xml version="1.0" standalone="no"?><!DOCTYPE svg PUBLIC "-//W3C//DTD SVG 1.1//EN" "http://www.w3.org/Graphics/SVG/1.1/DTD/svg11.dtd"><svg t="1732489564432" class="icon" viewBox="0 0 1024 1024" version="1.1" xmlns="http://www.w3.org/2000/svg" p-id="9137" xmlns:xlink="http://www.w3.org/1999/xlink" width="48" height="48"><path d="M846.5536 966.3872H177.4336c-14.144 0-25.6-11.456-25.6-25.6V271.6672c0-14.144 11.456-25.6 25.6-25.6h669.12c14.144 0 25.6 11.456 25.6 25.6v669.12c0 14.144-11.456 25.6-25.6 25.6z m-630.72-64h592.32v-592.32h-592.32v592.32zM249.376 156.032V115.2a19.2 19.2 0 0 1 19.2-19.2h486.8416a19.2 19.2 0 0 1 19.2 19.2v40.832h142.5664a30.016 30.016 0 0 1 0 60.032l-810.368-0.0064a30.016 30.016 0 1 1 0-60.032h142.56z" p-id="9138" fill="#000000"></path><path d="M242.976 156.032V115.2a25.6 25.6 0 0 1 25.6-25.6h486.8416a25.6 25.6 0 0 1 25.6 25.6v40.832h-6.4v-6.4h142.5664a36.416 36.416 0 1 1 0 72.8256H106.816a36.416 36.416 0 1 1 0-72.832h142.56v12.8H106.816a23.616 23.616 0 0 0 0 47.232h810.368a23.616 23.616 0 1 0 0-47.232h-148.9664V115.2a12.8 12.8 0 0 0-12.8-12.8H268.576a12.8 12.8 0 0 0-12.8 12.8v40.832h-12.8z m6.4 6.4v-6.4h6.4v6.4h-6.4zM714.7072 403.52a32 32 0 0 0-45.248 0l-360.1664 360.1664a32 32 0 1 0 45.248 45.2544l360.1664-360.16a32 32 0 0 0 0-45.2544z" p-id="9139" fill="#000000"></path><path d="M309.2928 403.52a32 32 0 0 0 0 45.2608l360.16 360.16a32 32 0 0 0 45.2544-45.248L354.5472 403.52a32 32 0 0 0-45.2544 0z" p-id="9140" fill="#000000"></path></svg>