<?xml version="1.0" standalone="no"?><!DOCTYPE svg PUBLIC "-//W3C//DTD SVG 1.1//EN" "http://www.w3.org/Graphics/SVG/1.1/DTD/svg11.dtd"><svg t="1732474457968" class="icon" viewBox="0 0 1024 1024" version="1.1" xmlns="http://www.w3.org/2000/svg" p-id="10761" xmlns:xlink="http://www.w3.org/1999/xlink" width="48" height="48"><path d="M689.387899 0.010967c46.954741 0 85.042778 38.047159 85.042779 85.039788 0 46.994622-38.088038 85.08266-85.042779 85.08266-47.034504 0-85.040784-38.088038-85.040784-85.08266 0-46.992628 38.00628-85.039787 85.040784-85.039788M581.116014 319.69584v654.147914c0 67.844785 93.170673 65.874628 93.170673 0l5.827716-379.689908h18.466232l5.913462 379.689908c0 65.874628 93.167681 67.844785 93.167681 0V319.69584h17.565903l5.827716 238.913425c0 50.730542 68.460957 50.730542 68.460957 0V297.328178c0-89.227368-26.679872-110.447433-108.683663-110.447433l-91.445789 0.082755H628.644055c-56.723767 0-77.65469 14.488031-99.816961 46.255813l-63.206541 113.36179H330.506278c-54.259077 0-51.13933 76.998636-0.985079 76.998636h155.636411c12.231723 0 27.006902-4.51461 35.542587-17.321628l60.415817-86.562271zM274.852337 656.539821h51.056576v63.290292h-51.056576zM340.850598 569.281613l44.654563 44.737317-36.03712 36.076005-44.735323-44.737317z" fill="#000000" p-id="10762"></path><path d="M291.926698 487.439342l54.505347 32.22044-26.021824 43.87687-54.422593-32.098801zM425.070816 1024l82.169301-436.659945H445.427442l-71.907734 375.792467H266.72544l-70.430117-375.627955h-61.811677l80.690686 436.495433z" fill="#000000" p-id="10763"></path></svg>